<svg width="64" height="32" viewBox="0 0 64 32" fill="none" xmlns="http://www.w3.org/2000/svg">
<rect x="0.5" y="0.5" width="63" height="31" fill="#93C5FD" stroke="#2563EB" stroke-dasharray="2 2"/>
<path d="M6.40625 20V11.5449H11.7969V12.8164H7.91797V15.3184H11.4629V16.5488H7.91797V20H6.40625ZM15.4414 20.1289C14 20.1289 13.2617 19.2617 13.2617 17.7383V13.5957H14.7207V17.4043C14.7207 18.3945 15.0898 18.8984 15.9688 18.8984C16.9121 18.8984 17.416 18.2891 17.416 17.3281V13.5957H18.875V20H17.416V19.0273H17.3164C17.0176 19.7129 16.3672 20.1289 15.4414 20.1289ZM20.7148 20V11.1172H22.1738V20H20.7148ZM24.0781 20V11.1172H25.5371V20H24.0781ZM30.7344 20V11.5449H32.2461V18.7285H36.125V20H30.7344ZM40.0742 20.1289C38.1523 20.1289 36.9922 18.875 36.9922 16.8008V16.7891C36.9922 14.7324 38.1699 13.4727 40.0742 13.4727C41.9844 13.4727 43.1562 14.7266 43.1562 16.7891V16.8008C43.1562 18.875 41.9902 20.1289 40.0742 20.1289ZM40.0742 18.9453C41.0879 18.9453 41.6621 18.1543 41.6621 16.8066V16.7949C41.6621 15.4473 41.082 14.6504 40.0742 14.6504C39.0605 14.6504 38.4805 15.4473 38.4805 16.7949V16.8066C38.4805 18.1543 39.0605 18.9453 40.0742 18.9453ZM47.375 22.25C45.6875 22.25 44.6738 21.5293 44.5273 20.4512L44.5332 20.4336H45.9922L45.998 20.4512C46.0977 20.8613 46.584 21.1484 47.3984 21.1484C48.3945 21.1484 48.9746 20.6855 48.9746 19.8652V18.6406H48.875C48.5059 19.3262 47.8086 19.7012 46.9238 19.7012C45.3008 19.7012 44.293 18.4473 44.293 16.6309V16.6191C44.293 14.7676 45.3008 13.4902 46.9531 13.4902C47.8379 13.4902 48.5293 13.9238 48.8926 14.6504H48.9688V13.5957H50.4277V19.8418C50.4277 21.3184 49.2441 22.25 47.375 22.25ZM47.375 18.541C48.3887 18.541 48.998 17.7617 48.998 16.6309V16.6191C48.998 15.4883 48.3828 14.7031 47.375 14.7031C46.3613 14.7031 45.7871 15.4883 45.7871 16.6191V16.6309C45.7871 17.7617 46.3613 18.541 47.375 18.541ZM54.9805 20.1289C53.0586 20.1289 51.8984 18.875 51.8984 16.8008V16.7891C51.8984 14.7324 53.0762 13.4727 54.9805 13.4727C56.8906 13.4727 58.0625 14.7266 58.0625 16.7891V16.8008C58.0625 18.875 56.8965 20.1289 54.9805 20.1289ZM54.9805 18.9453C55.9941 18.9453 56.5684 18.1543 56.5684 16.8066V16.7949C56.5684 15.4473 55.9883 14.6504 54.9805 14.6504C53.9668 14.6504 53.3867 15.4473 53.3867 16.7949V16.8066C53.3867 18.1543 53.9668 18.9453 54.9805 18.9453Z" fill="#2563EB"/>
</svg>
